HIERARCHY
ROOT Hips
{
	OFFSET 0.000000 100.481300 0.000000
	CHANNELS 6 Xposition Yposition Zposition Xrotation Yrotation Zrotation
	JOINT Spine
	{
		OFFSET -0.279200 12.230698 -2.892100
		CHANNELS 3 Xrotation Yrotation Zrotation
		JOINT Spine1
		{
			OFFSET -0.325700 14.269203 -3.374200
			CHANNELS 3 Xrotation Yrotation Zrotation
			JOINT Spine2
			{
				OFFSET -0.372300 16.307602 -0.352600
				CHANNELS 3 Xrotation Yrotation Zrotation
				JOINT Neck
				{
					OFFSET -0.418800 17.814194 8.416900
					CHANNELS 3 Xrotation Yrotation Zrotation
					JOINT Head
					{
						OFFSET 0.000000 7.031097 3.806800
						CHANNELS 3 Xrotation Yrotation Zrotation
						JOINT HeadTop_End
						{
							OFFSET 0.000000 24.646606 12.978600
							CHANNELS 3 Xrotation Yrotation Zrotation
							End Site
							{
								OFFSET 0.000000 27.854965 0.000000
							}
						}
					}
				}
				JOINT LeftShoulder
				{
					OFFSET 16.952999 14.495407 -7.737500
					CHANNELS 3 Xrotation Yrotation Zrotation
					JOINT LeftArm
					{
						OFFSET 9.308998 -2.777710 0.208600
						CHANNELS 3 Xrotation Yrotation Zrotation
						JOINT LeftForeArm
						{
							OFFSET 29.972298 0.000000 0.000000
							CHANNELS 3 Xrotation Yrotation Zrotation
							JOINT LeftHand
							{
								OFFSET 26.026505 0.000000 0.000000
								CHANNELS 3 Xrotation Yrotation Zrotation
								JOINT LeftHandThumb1
								{
									OFFSET 12.240501 -7.147949 9.207150
									CHANNELS 3 Xrotation Yrotation Zrotation
									JOINT LeftHandThumb2
									{
										OFFSET 4.138618 -2.389435 2.389433
										CHANNELS 3 Xrotation Yrotation Zrotation
										JOINT LeftHandThumb3
										{
											OFFSET 2.726913 -1.574387 1.574386
											CHANNELS 3 Xrotation Yrotation Zrotation
											JOINT LeftHandThumb4
											{
												OFFSET 3.941010 -2.275345 2.275342
												CHANNELS 3 Xrotation Yrotation Zrotation
												End Site
												{
													OFFSET -0.005798 5.087799 0.009903
												}
											}
										}
									}
								}
								JOINT LeftHandIndex1
								{
									OFFSET 24.424698 -1.985611 5.953459
									CHANNELS 3 Xrotation Yrotation Zrotation
									JOINT LeftHandIndex2
									{
										OFFSET 6.426697 0.000000 0.000000
										CHANNELS 3 Xrotation Yrotation Zrotation
										JOINT LeftHandIndex3
										{
											OFFSET 5.337898 0.000000 0.000000
											CHANNELS 3 Xrotation Yrotation Zrotation
											JOINT LeftHandIndex4
											{
												OFFSET 4.409401 0.000000 0.000000
												CHANNELS 3 Xrotation Yrotation Zrotation
												End Site
												{
													OFFSET 0.000000 4.409363 0.014373
												}
											}
										}
									}
								}
								JOINT LeftHandMiddle1
								{
									OFFSET 23.810104 0.000000 0.000000
									CHANNELS 3 Xrotation Yrotation Zrotation
									JOINT LeftHandMiddle2
									{
										OFFSET 7.176498 0.000000 0.000000
										CHANNELS 3 Xrotation Yrotation Zrotation
										JOINT LeftHandMiddle3
										{
											OFFSET 6.774902 0.000000 0.000000
											CHANNELS 3 Xrotation Yrotation Zrotation
											JOINT LeftHandMiddle4
											{
												OFFSET 5.403328 0.000000 0.000000
												CHANNELS 3 Xrotation Yrotation Zrotation
												End Site
												{
													OFFSET -0.027702 5.403244 0.017414
												}
											}
										}
									}
								}
								JOINT LeftHandRing1
								{
									OFFSET 22.908401 -0.839279 -6.020567
									CHANNELS 3 Xrotation Yrotation Zrotation
									JOINT LeftHandRing2
									{
										OFFSET 6.337502 0.000000 0.000000
										CHANNELS 3 Xrotation Yrotation Zrotation
										JOINT LeftHandRing3
										{
											OFFSET 5.779297 0.000000 0.000000
											CHANNELS 3 Xrotation Yrotation Zrotation
											JOINT LeftHandRing4
											{
												OFFSET 4.965698 0.000000 0.000000
												CHANNELS 3 Xrotation Yrotation Zrotation
												End Site
												{
													OFFSET 0.000000 4.965668 0.016186
												}
											}
										}
									}
								}
								JOINT LeftHandPinky1
								{
									OFFSET 20.037003 -1.530319 -10.950146
									CHANNELS 3 Xrotation Yrotation Zrotation
									JOINT LeftHandPinky2
									{
										OFFSET 5.254700 0.000000 0.000000
										CHANNELS 3 Xrotation Yrotation Zrotation
										JOINT LeftHandPinky3
										{
											OFFSET 4.810204 0.000000 0.000000
											CHANNELS 3 Xrotation Yrotation Zrotation
											JOINT LeftHandPinky4
											{
												OFFSET 3.647202 0.000000 0.000000
												CHANNELS 3 Xrotation Yrotation Zrotation
												End Site
												{
													OFFSET 0.000000 3.647186 0.011889
												}
											}
										}
									}
								}
							}
						}
					}
				}
				JOINT RightShoulder
				{
					OFFSET -15.141001 14.495407 -7.737500
					CHANNELS 3 Xrotation Yrotation Zrotation
					JOINT RightArm
					{
						OFFSET -9.308998 -2.777710 0.208500
						CHANNELS 3 Xrotation Yrotation Zrotation
						JOINT RightForeArm
						{
							OFFSET -29.972300 0.000000 0.000000
							CHANNELS 3 Xrotation Yrotation Zrotation
							JOINT RightHand
							{
								OFFSET -26.026505 0.000000 0.000000
								CHANNELS 3 Xrotation Yrotation Zrotation
								JOINT RightHandThumb1
								{
									OFFSET -12.240601 -7.148026 9.207092
									CHANNELS 3 Xrotation Yrotation Zrotation
									JOINT RightHandThumb2
									{
										OFFSET -4.138618 -2.389435 2.389433
										CHANNELS 3 Xrotation Yrotation Zrotation
										JOINT RightHandThumb3
										{
											OFFSET -2.726974 -1.574417 1.574421
											CHANNELS 3 Xrotation Yrotation Zrotation
											JOINT RightHandThumb4
											{
												OFFSET -3.941010 -2.275345 2.275343
												CHANNELS 3 Xrotation Yrotation Zrotation
												End Site
												{
													OFFSET 0.005814 5.087799 0.009927
												}
											}
										}
									}
								}
								JOINT RightHandIndex1
								{
									OFFSET -24.424698 -1.985657 5.953444
									CHANNELS 3 Xrotation Yrotation Zrotation
									JOINT RightHandIndex2
									{
										OFFSET -6.426697 0.000000 0.000000
										CHANNELS 3 Xrotation Yrotation Zrotation
										JOINT RightHandIndex3
										{
											OFFSET -5.337898 0.000000 0.000000
											CHANNELS 3 Xrotation Yrotation Zrotation
											JOINT RightHandIndex4
											{
												OFFSET -4.409401 0.000000 0.000000
												CHANNELS 3 Xrotation Yrotation Zrotation
												End Site
												{
													OFFSET 0.000000 4.409363 0.014408
												}
											}
										}
									}
								}
								JOINT RightHandMiddle1
								{
									OFFSET -23.810097 0.000000 0.000000
									CHANNELS 3 Xrotation Yrotation Zrotation
									JOINT RightHandMiddle2
									{
										OFFSET -7.176498 0.000000 0.000000
										CHANNELS 3 Xrotation Yrotation Zrotation
										JOINT RightHandMiddle3
										{
											OFFSET -6.774902 0.000000 0.000000
											CHANNELS 3 Xrotation Yrotation Zrotation
											JOINT RightHandMiddle4
											{
												OFFSET -5.403328 0.000000 0.000000
												CHANNELS 3 Xrotation Yrotation Zrotation
												End Site
												{
													OFFSET 0.027702 5.403244 0.017457
												}
											}
										}
									}
								}
								JOINT RightHandRing1
								{
									OFFSET -22.908302 -0.839325 -6.020576
									CHANNELS 3 Xrotation Yrotation Zrotation
									JOINT RightHandRing2
									{
										OFFSET -6.337502 0.000000 0.000000
										CHANNELS 3 Xrotation Yrotation Zrotation
										JOINT RightHandRing3
										{
											OFFSET -5.779297 0.000000 0.000000
											CHANNELS 3 Xrotation Yrotation Zrotation
											JOINT RightHandRing4
											{
												OFFSET -4.965698 0.000000 0.000000
												CHANNELS 3 Xrotation Yrotation Zrotation
												End Site
												{
													OFFSET 0.000000 4.965668 0.016226
												}
											}
										}
									}
								}
								JOINT RightHandPinky1
								{
									OFFSET -20.037003 -1.530334 -10.950259
									CHANNELS 3 Xrotation Yrotation Zrotation
									JOINT RightHandPinky2
									{
										OFFSET -5.254700 0.000000 0.000000
										CHANNELS 3 Xrotation Yrotation Zrotation
										JOINT RightHandPinky3
										{
											OFFSET -4.810204 0.000000 0.000000
											CHANNELS 3 Xrotation Yrotation Zrotation
											JOINT RightHandPinky4
											{
												OFFSET -3.647202 0.000000 0.000000
												CHANNELS 3 Xrotation Yrotation Zrotation
												End Site
												{
													OFFSET 0.000000 3.647186 0.011917
												}
											}
										}
									}
								}
							}
						}
					}
				}
			}
		}
	}
	JOINT LeftUpLeg
	{
		OFFSET 15.427100 -6.655098 0.678600
		CHANNELS 3 Xrotation Yrotation Zrotation
		JOINT LeftLeg
		{
			OFFSET 4.081073 -39.591068 13.024000
			CHANNELS 3 Xrotation Yrotation Zrotation
			JOINT LeftFoot
			{
				OFFSET -4.081074 -37.707932 -15.979700
				CHANNELS 3 Xrotation Yrotation Zrotation
				JOINT LeftToeBase
				{
					OFFSET 5.346399 -15.068900 20.645000
					CHANNELS 3 Xrotation Yrotation Zrotation
					JOINT LeftToe_End
					{
						OFFSET 2.754700 0.931300 11.300900
						CHANNELS 3 Xrotation Yrotation Zrotation
						End Site
						{
							OFFSET 0.000000 11.669021 0.000000
						}
					}
				}
			}
		}
	}
	JOINT RightUpLeg
	{
		OFFSET -15.569500 -6.655098 0.678600
		CHANNELS 3 Xrotation Yrotation Zrotation
		JOINT RightLeg
		{
			OFFSET -4.081825 -39.591045 13.023800
			CHANNELS 3 Xrotation Yrotation Zrotation
			JOINT RightFoot
			{
				OFFSET 4.081824 -37.707954 -15.979600
				CHANNELS 3 Xrotation Yrotation Zrotation
				JOINT RightToeBase
				{
					OFFSET -5.346400 -15.068900 20.645000
					CHANNELS 3 Xrotation Yrotation Zrotation
					JOINT RightToe_End
					{
						OFFSET -2.754700 0.931300 11.300900
						CHANNELS 3 Xrotation Yrotation Zrotation
						End Site
						{
							OFFSET 0.000000 11.669021 0.000000
						}
					}
				}
			}
		}
	}
}
MOTION
Frames: 6
Frame Time: 0.033333
3.730657 77.268463 86.015121 -19.053569 8.901900 2.153046 10.205901 -5.987855 -2.574530 3.531201 -2.280298 -0.009618 3.520366 -2.306573 0.066854 13.246507 -0.684190 1.550312 4.569894 -3.979274 3.729947 -0.000002 0.000000 -0.000000 0.122921 8.151777 -5.076599 -1.062013 19.981350 -51.873818 0.000387 -94.043434 0.000443 37.954528 12.409334 13.489081 2.008071 6.341785 9.375036 16.250827 32.589455 -10.426009 6.748090 20.093139 -1.610887 0.000001 -0.000000 0.000000 -2.699548 -9.534631 -15.322747 3.045411 5.717206 -56.057975 3.045421 5.717221 -56.057937 0.000003 0.000000 -0.000001 0.497278 4.430631 -6.847247 2.297304 5.137631 -48.161091 2.295872 5.136360 -48.144958 -0.000003 0.000001 -0.000001 2.049148 7.857410 -16.322945 3.802502 6.157022 -63.367381 3.905001 6.207074 -64.319202 0.000004 0.000001 -0.000000 6.398975 11.420852 -34.195564 2.956375 1.568196 -55.268193 2.937855 5.643682 -54.971244 -0.000002 0.000000 0.000001 1.292415 -13.856471 14.331793 -15.186818 -6.710050 34.820738 0.000889 84.625614 -0.000933 36.554787 1.820046 -18.661327 -6.564108 -8.292399 -4.377548 11.914964 -13.025747 2.794382 -5.162621 11.161234 -1.831588 -0.000000 -0.000001 0.000002 -2.561398 1.367918 35.834048 4.709366 -6.579328 71.159786 4.709376 -6.579320 71.159786 -0.000001 -0.000000 0.000002 0.011029 -1.819238 29.004016 3.815775 -6.205178 63.146485 3.815771 -6.205165 63.146472 -0.000001 0.000003 -0.000001 1.005295 -3.697630 25.057613 4.476036 -6.495562 69.110579 4.476042 -6.495530 69.110559 -0.000002 -0.000001 0.000001 5.700644 -10.257029 34.977242 4.809283 -6.612350 72.029536 4.809269 -6.612339 72.029570 0.000001 -0.000001 0.000001 6.948877 2.574415 -5.110029 52.717832 1.640726 -2.622584 -40.695097 15.031003 7.498754 -5.697663 -0.000016 -0.000001 0.000000 0.000001 0.000000 -59.922527 3.756992 -18.240749 76.293923 -2.698456 -0.682276 43.251787 11.155101 29.664697 2.358764 0.000007 0.000012 -0.000002 0.000001 0.000001 
3.905591 77.713890 87.238007 -20.066536 9.634796 1.873574 10.400311 -6.376977 -2.284599 3.596259 -2.373242 0.005797 3.584283 -2.400978 0.086779 13.444893 -0.698347 1.541917 4.882421 -4.096318 3.774356 -0.000001 0.000000 -0.000000 0.136476 8.044528 -5.168665 -1.751935 20.285459 -50.730772 0.000757 -95.535263 0.000766 37.929072 12.198327 13.830071 2.172294 6.611469 9.019013 16.308654 32.682247 -10.465117 6.935158 20.459572 -1.713595 -0.000000 -0.000002 -0.000000 -3.172002 -9.475723 -17.645497 3.115943 5.763810 -56.763001 3.115943 5.763813 -56.762977 0.000002 0.000000 -0.000001 0.745048 5.056007 -9.171662 2.640443 5.424081 -51.887899 2.638912 5.422891 -51.871779 -0.000002 0.000001 -0.000000 2.193565 7.648248 -18.288566 4.870492 6.582224 -72.971487 4.856196 6.577859 -72.846870 0.000001 -0.000001 -0.000000 7.105849 11.120527 -39.029067 3.724863 2.029786 -62.723260 3.706356 6.108149 -62.467510 -0.000001 0.000001 -0.000000 1.281453 -13.854278 14.259823 -14.278056 -7.019764 35.289111 0.000919 83.813279 -0.000923 36.275623 1.886459 -18.208849 -5.939694 -9.232197 -3.654833 12.436540 -14.196972 2.893590 -5.144712 11.109388 -1.833295 -0.000000 0.000003 0.000002 -2.435186 1.079674 36.392071 4.730328 -6.586372 71.342678 4.730332 -6.586386 71.342665 0.000001 0.000000 0.000000 0.081443 -1.981539 29.589773 3.845977 -6.220269 63.425663 3.845988 -6.220280 63.425635 0.000001 0.000000 -0.000003 1.024992 -3.725494 25.474784 4.540176 -6.519517 69.676474 4.540171 -6.519522 69.676508 0.000001 -0.000000 0.000001 5.780349 -10.246352 35.513575 4.906323 -6.642836 72.870441 4.906316 -6.642836 72.870455 0.000001 -0.000002 -0.000001 9.800320 2.673099 -3.882670 51.319050 1.459447 -2.856275 -41.176062 14.018769 7.159987 -5.445833 0.000009 -0.000000 -0.000000 0.000002 0.000000 -62.404098 3.715579 -17.988307 75.814267 -3.314401 -0.773047 43.855009 11.278741 29.518725 1.820929 -0.000006 -0.000000 -0.000004 0.000000 0.000002 
4.087154 78.094406 88.330826 -21.002297 10.393674 1.615026 10.529719 -6.728039 -2.002629 3.632571 -2.458470 0.033833 3.619602 -2.486678 0.118874 13.597331 -0.710364 1.567430 5.176243 -4.151196 3.788146 0.000001 -0.000000 -0.000000 0.138453 7.931001 -5.144607 -2.427465 20.524758 -49.678875 0.000118 -96.863113 0.000126 38.005836 11.562087 14.676748 2.308085 6.798886 8.520204 16.438944 32.890178 -10.553308 7.253045 21.073584 -1.888245 -0.000001 -0.000001 -0.000000 -3.792591 -8.621125 -21.809760 3.278605 5.866664 -58.368351 3.278612 5.866645 -58.368386 -0.000002 0.000001 -0.000001 1.190009 5.744441 -13.325942 3.342674 5.905430 -58.992986 3.341000 5.904424 -58.976839 -0.000002 0.000001 0.000001 2.331134 7.178764 -21.449707 6.369104 6.862213 -85.721838 5.901441 6.811410 -81.794924 0.000000 -0.000000 -0.000000 7.787793 10.365320 -46.137258 4.764443 2.461978 -72.097722 4.748565 6.543889 -71.904837 -0.000000 0.000001 -0.000000 1.275180 -13.891428 14.208605 -13.416961 -7.289960 35.762785 -0.000218 82.816775 0.000219 36.141075 2.018275 -17.856756 -5.207879 -10.274505 -2.913290 13.027312 -15.503389 3.010182 -5.090601 10.952767 -1.838434 -0.000000 -0.000001 0.000001 -2.267472 0.708303 37.149324 4.780548 -6.603029 71.779913 4.780562 -6.603021 71.779926 -0.000001 0.000001 -0.000000 0.201689 -2.237488 30.435955 3.915291 -6.254261 64.063691 3.915319 -6.254257 64.063671 0.000001 0.000000 0.000001 1.052962 -3.761395 26.175503 4.629048 -6.551544 70.457315 4.629041 -6.551547 70.457322 0.000003 0.000001 -0.000000 5.869774 -10.210341 36.223901 5.039743 -6.682216 74.020392 5.039731 -6.682219 74.020413 0.000001 -0.000000 0.000001 12.218758 2.711308 -2.912103 50.213526 1.324044 -2.850978 -41.518937 13.357021 6.872104 -5.409158 0.000009 0.000003 -0.000000 0.000000 0.000000 -64.493754 3.677884 -17.781288 75.429700 -3.920858 -0.858627 44.412171 11.307103 29.381930 1.590268 0.000003 0.000002 0.000003 0.000002 -0.000000 
4.268245 78.408638 89.309616 -21.852647 11.076988 1.347085 10.567897 -7.000072 -1.738339 3.629267 -2.514364 0.072994 3.615632 -2.541816 0.160718 13.727590 -0.716933 1.638289 5.485408 -4.121553 3.780767 -0.000002 0.000001 -0.000000 0.124552 7.802592 -4.952709 -2.939561 20.741475 -48.858573 0.000447 -98.014560 0.000429 38.336978 10.442096 16.411650 2.330363 6.773428 8.043015 16.601647 33.147581 -10.663565 7.600664 21.732887 -2.079491 0.000000 -0.000000 -0.000000 -4.227377 -6.831944 -27.346952 3.528682 6.012721 -60.784585 3.528673 6.012712 -60.784606 0.000002 0.000001 -0.000001 1.786396 6.311325 -18.879925 4.288168 6.376121 -67.814606 4.286389 6.375398 -67.798418 0.000000 -0.000002 -0.000001 2.382347 6.540972 -25.398709 7.891003 6.807051 -98.458529 6.701844 6.878853 -88.503009 -0.000001 -0.000001 0.000001 8.147688 9.425253 -53.809183 5.791502 2.708382 -80.896371 5.782697 6.793358 -80.792395 0.000000 0.000001 -0.000000 1.277758 -13.943650 14.211995 -12.619785 -7.508578 36.243682 -0.000076 81.644277 0.000067 36.140563 2.049500 -17.685011 -4.465783 -11.280865 -2.273996 13.647825 -16.852778 3.137471 -5.012863 10.727893 -1.845737 0.000000 -0.000002 -0.000002 -2.048725 0.245491 38.150896 4.858185 -6.627888 72.453725 4.858178 -6.627887 72.453752 0.000001 0.000003 -0.000003 0.369947 -2.572148 31.585926 4.023201 -6.305296 65.049998 4.023205 -6.305291 65.050018 -0.000000 0.000001 -0.000005 1.071753 -3.772139 27.149418 4.743382 -6.590758 71.456298 4.743374 -6.590749 71.456312 0.000001 -0.000001 -0.000000 5.964244 -10.142109 37.120456 5.201125 -6.726043 75.402604 5.201131 -6.726030 75.402611 0.000001 -0.000005 -0.000001 14.213881 2.604747 -2.292912 49.428249 1.171988 -2.565430 -41.756027 13.274941 6.691909 -5.631179 0.000000 0.000002 -0.000000 -0.000002 0.000000 -66.223786 3.583994 -17.569745 75.088074 -4.478015 -0.951860 45.033828 11.160697 29.245757 1.624738 0.000007 -0.000005 0.000002 0.000002 -0.000001 
4.440625 78.647369 90.193161 -22.593573 11.599663 1.070262 10.481420 -7.192934 -1.521335 3.573729 -2.538020 0.112570 3.559730 -2.563906 0.201314 13.857447 -0.712802 1.731234 5.860635 -4.025086 3.810506 -0.000000 0.000001 -0.000000 0.102782 7.695419 -4.682773 -3.266260 21.029220 -48.202011 0.000478 -99.103395 0.000476 38.942037 9.056304 19.004407 2.216820 6.526688 7.748730 16.716080 33.327194 -10.741196 7.821003 22.144411 -2.200865 0.000000 0.000000 0.000000 -4.150373 -4.594722 -32.885786 3.811140 6.161313 -63.447710 3.811118 6.161317 -63.447710 0.000001 0.000000 -0.000002 2.355524 6.631074 -24.461148 5.171454 6.666380 -75.579998 5.169559 6.665910 -75.563790 -0.000000 -0.000002 -0.000002 2.327934 5.958927 -29.078386 9.020825 6.541593 -108.156558 7.012234 6.879936 -91.093939 0.000000 0.000000 -0.000003 8.168711 8.689561 -59.826952 6.503445 2.784655 -86.859748 6.504807 6.870941 -86.856913 0.000002 0.000002 -0.000001 1.285802 -13.980107 14.255202 -11.878524 -7.658975 36.811151 0.000033 80.307623 -0.000014 36.156604 1.896180 -17.609338 -3.846001 -12.094512 -1.851054 14.236533 -18.111498 3.262875 -4.934401 10.501073 -1.853018 -0.000002 0.000001 -0.000002 -1.797963 -0.260843 39.345957 4.952797 -6.656880 73.271735 4.952825 -6.656886 73.271770 -0.000001 -0.000001 -0.000001 0.561199 -2.926747 32.946766 4.158503 -6.366112 66.276126 4.158496 -6.366114 66.276160 -0.000002 -0.000000 0.000001 1.064253 -3.734042 28.275194 4.875114 -6.633204 72.600594 4.875128 -6.633213 72.600601 0.000000 0.000004 -0.000001 6.060666 -10.052990 38.143721 5.371221 -6.767770 76.850317 5.371219 -6.767745 76.850338 0.000000 0.000001 -0.000000 15.891562 2.386688 -1.969070 48.865970 1.023018 -2.115195 -41.983950 13.630715 6.616034 -5.930856 -0.000004 -0.000003 0.000000 0.000001 0.000000 -67.606845 3.393308 -17.330975 74.752193 -4.999208 -1.040931 45.873200 11.012225 29.082474 1.349173 -0.000005 -0.000014 -0.000001 0.000000 -0.000001 
4.594355 78.797768 91.002022 -23.204070 11.975615 0.806149 10.263426 -7.355561 -1.379545 3.465070 -2.550307 0.138179 3.450785 -2.574642 0.226945 13.984573 -0.700248 1.808922 6.317064 -3.931981 3.938114 -0.000001 0.000000 0.000000 0.084862 7.659958 -4.480925 -3.517218 21.432106 -47.480330 -0.000089 -100.283023 -0.000081 39.645341 7.846395 21.712833 2.027644 6.174495 7.685566 16.737339 33.360440 -10.755645 7.853294 22.204313 -2.218665 -0.000001 0.000001 0.000000 -3.646772 -2.627237 -37.126426 4.057751 6.277813 -65.723905 4.057775 6.277816 -65.723919 -0.000000 0.000001 -0.000000 2.740851 6.735541 -28.714173 5.732928 6.785167 -80.371389 5.731010 6.784844 -80.355147 0.000000 0.000001 0.000000 2.253454 5.606850 -31.561293 9.600680 6.323377 -113.328773 6.981728 6.880447 -90.839119 -0.000001 -0.000002 -0.000001 8.060036 8.300905 -63.076852 6.821742 2.794730 -89.511009 6.827072 6.880965 -89.548192 0.000002 0.000001 -0.000002 1.293258 -13.994686 14.300174 -11.174295 -7.714959 37.554528 0.000081 78.812877 -0.000073 36.103642 1.669347 -17.550263 -3.445386 -12.621479 -1.715346 14.732976 -19.156895 3.372118 -4.872505 10.322240 -1.858688 0.000001 -0.000000 -0.000001 -1.535676 -0.767779 40.682550 5.053712 -6.686167 74.140331 5.053710 -6.686191 74.140351 0.000001 -0.000000 0.000000 0.747936 -3.250356 34.417736 4.308808 -6.429658 67.624815 4.308804 -6.429656 67.624836 0.000001 0.000003 -0.000001 1.028683 -3.653989 29.468499 5.008349 -6.673220 73.750279 5.008339 -6.673213 73.750313 -0.000001 0.000000 -0.000001 6.148770 -9.935458 39.282248 5.532932 -6.803252 78.218964 5.532919 -6.803250 78.218964 -0.000000 0.000001 -0.000000 17.380750 2.181808 -1.781996 48.398389 0.980866 -1.669334 -42.369118 13.980649 6.705006 -6.095857 -0.000001 -0.000001 -0.000000 0.000002 0.000000 -68.640362 3.106326 -17.072160 74.392918 -5.486358 -1.105966 47.056093 11.108165 28.873692 0.386615 0.000012 -0.000004 -0.000000 0.000001 0.000000 
